<?xml version="1.0" standalone="no"?>
<!DOCTYPE svg PUBLIC "-//W3C//DTD SVG 20010904//EN"
 "http://www.w3.org/TR/2001/REC-SVG-20010904/DTD/svg10.dtd">
<svg version="1.0" xmlns="http://www.w3.org/2000/svg"
 width="567.000000pt" height="567.000000pt" viewBox="0 0 567.000000 567.000000"
 preserveAspectRatio="xMidYMid meet">
<metadata>
Created by potrace 1.14, written by Peter Selinger 2001-2017
</metadata>
<g transform="translate(0.000000,567.000000) scale(0.100000,-0.100000)"
fill="#000000" stroke="none">
<path d="M0 2835 l0 -2835 2835 0 2835 0 0 2835 0 2835 -2835 0 -2835 0 0
-2835z m2676 1834 c11 -13 26 -18 39 -15 12 3 35 -3 54 -15 18 -11 38 -19 44
-18 7 1 24 -1 38 -5 45 -13 64 -14 84 -3 11 6 46 9 77 8 37 -2 58 2 58 8 0 7
10 9 23 6 13 -4 49 2 80 13 58 19 169 21 175 2 2 -6 8 -8 13 -5 11 7 243 8
316 2 29 -3 67 -10 85 -15 18 -6 58 -13 88 -17 30 -3 59 -10 65 -14 5 -5 22
-11 36 -14 35 -9 98 -74 108 -112 4 -16 6 -51 5 -77 -2 -27 1 -48 6 -48 6 0 9
-38 9 -90 -2 -84 -14 -117 -26 -70 -8 30 -23 24 -23 -10 0 -16 -4 -30 -10 -30
-5 0 -10 12 -10 28 0 19 -3 23 -9 13 -5 -7 -6 -21 -4 -31 4 -14 -4 -18 -49
-22 -43 -5 -56 -2 -69 13 -9 11 -20 19 -24 19 -5 0 -1 -8 8 -18 13 -14 14 -21
5 -30 -9 -9 -5 -12 17 -13 17 -1 37 -1 45 0 10 0 11 -1 3 -5 -7 -3 -13 -13
-13 -21 0 -12 8 -14 38 -9 l37 6 -35 -19 -35 -19 28 -7 c15 -4 27 -11 27 -16
0 -5 7 -9 15 -9 9 0 15 9 15 25 0 27 12 32 28 12 12 -14 -10 -52 -31 -52 -7
-1 -10 -7 -8 -15 2 -8 5 -24 6 -35 2 -14 1 -14 -2 -2 -5 18 -15 22 -26 10 -4
-3 -2 -12 4 -19 7 -8 7 -14 0 -19 -6 -3 -16 5 -23 19 -9 22 -8 29 7 46 20 22
21 21 -17 37 -20 9 -28 9 -32 0 -3 -8 -8 -6 -16 6 -6 9 -19 17 -28 16 -14 0
-13 -3 6 -16 25 -17 29 -33 8 -33 -16 0 -66 45 -66 59 0 18 40 22 70 7 27 -13
44 -6 20 9 -6 4 -8 11 -5 16 4 5 2 9 -4 9 -5 0 -11 -5 -13 -11 -3 -8 -10 -8
-26 2 -15 9 -25 10 -30 4 -4 -5 -25 -11 -47 -12 -63 -4 -105 -13 -105 -23 0
-6 7 -10 16 -10 8 0 13 -4 10 -9 -3 -5 -16 -7 -29 -4 -15 4 -19 2 -12 -5 19
-20 95 -19 95 2 0 10 -7 12 -22 8 -14 -3 -19 -2 -14 6 9 15 56 16 56 1 0 -6
-9 -24 -20 -39 -17 -24 -18 -29 -5 -34 9 -3 15 0 15 9 0 8 7 15 15 15 27 0 16
-28 -15 -39 -16 -5 -30 -15 -30 -20 0 -6 -8 -11 -17 -12 -14 0 -15 -2 -3 -6
20 -8 40 -29 40 -42 0 -6 4 -11 9 -11 8 0 9 -35 2 -59 0 -2 -9 5 -18 15 -10
11 -26 18 -37 16 -10 -2 -23 2 -28 10 -7 10 -8 8 -6 -6 2 -13 15 -23 38 -29
36 -9 75 -37 52 -37 -7 0 -12 -4 -12 -10 0 -5 6 -7 13 -4 8 3 14 -2 14 -11 0
-12 -7 -15 -24 -12 -15 3 -27 -2 -33 -12 -6 -11 -9 -12 -10 -3 0 9 -7 11 -20
7 -14 -4 -20 -2 -20 9 0 10 -6 13 -17 10 -15 -5 -15 -4 -3 5 8 5 12 13 8 16
-9 9 -49 -5 -43 -15 3 -4 -2 -13 -10 -20 -8 -7 -16 -11 -16 -9 -1 2 -3 17 -5
34 -2 20 0 25 6 16 7 -12 11 -12 24 -2 9 8 16 22 16 32 0 11 4 19 10 19 5 0 7
7 3 16 -5 13 -8 12 -25 -5 -22 -24 -32 -27 -25 -7 4 10 1 13 -8 10 -8 -3 -12
-11 -9 -18 3 -7 -7 -19 -22 -26 -23 -13 -27 -13 -40 5 -14 19 -14 19 -12 -5 3
-21 -2 -26 -24 -28 -19 -2 -28 1 -28 11 0 9 -11 14 -29 15 -22 0 -28 -3 -24
-14 3 -9 -2 -14 -13 -15 -11 0 -30 -2 -44 -4 -67 -11 -130 -12 -124 -4 6 10
-60 4 -78 -7 -7 -4 -8 -3 -4 5 6 9 0 10 -21 6 -21 -5 -24 -4 -13 4 8 5 11 13
8 17 -11 10 -76 -24 -80 -42 -2 -13 -7 -12 -25 6 -23 21 -25 20 -27 -14 -1
-11 -7 -21 -14 -23 -7 -3 -10 1 -6 10 3 8 0 18 -7 23 -8 4 -10 3 -5 -4 5 -8 0
-12 -12 -12 -11 0 -25 -7 -32 -15 -16 -19 -40 -19 -40 0 0 8 5 14 12 12 7 -1
12 7 13 18 0 13 -7 20 -20 20 -15 0 -20 -7 -20 -25 l0 -25 -112 0 c-81 0 -114
-4 -118 -12 -2 -7 -17 -13 -32 -14 -15 0 -37 -4 -48 -8 -11 -5 -29 -5 -41 -1
-11 5 -27 4 -34 0 -8 -5 -21 -5 -31 0 -9 5 -20 6 -24 2 -3 -4 -16 -8 -28 -9
-45 -4 -62 -8 -72 -20 -5 -7 -39 -16 -75 -20 -36 -3 -78 -15 -95 -25 -16 -10
-38 -18 -47 -18 -10 0 -18 -4 -18 -10 0 -5 -9 -10 -19 -10 -11 0 -23 -5 -26
-11 -4 -5 -18 -14 -31 -19 -13 -5 -29 -21 -34 -35 -6 -15 -14 -24 -19 -21 -5
3 -14 0 -20 -8 -8 -10 -6 -20 10 -40 18 -22 26 -25 58 -20 56 9 63 -11 18 -53
-20 -18 -31 -33 -24 -34 6 0 3 -5 -8 -10 -14 -6 1 -7 45 -4 36 3 99 7 140 9
73 5 74 4 35 -8 -22 -7 -78 -14 -125 -15 -101 -3 -224 -25 -257 -46 -25 -17
-48 -60 -44 -84 1 -7 -3 -27 -10 -43 -9 -22 -9 -32 0 -41 6 -6 11 -26 11 -43
0 -18 5 -36 10 -39 6 -4 10 26 10 84 0 105 9 135 47 154 32 17 114 34 188 40
28 2 40 2 29 0 -13 -2 -28 -19 -39 -42 -13 -29 -26 -41 -55 -51 -34 -11 -37
-15 -27 -32 10 -16 22 -18 77 -16 52 2 65 0 65 -12 0 -8 -7 -15 -15 -15 -8 0
-23 -5 -34 -11 -17 -10 -15 -14 19 -47 35 -34 48 -41 59 -34 2 1 13 -6 25 -17
11 -10 27 -16 34 -13 8 3 23 0 33 -7 20 -14 42 -18 84 -15 34 1 73 1 115 -1
34 -2 35 -3 23 -23 -14 -23 -14 -38 -3 -74 9 -27 42 -31 48 -5 3 9 5 4 6 -13
1 -21 4 -26 10 -16 6 8 19 12 35 9 15 -3 29 -1 32 3 3 5 15 9 27 8 21 0 21 -1
-3 -11 -14 -6 -20 -12 -13 -15 7 -2 21 0 32 6 24 13 69 15 56 2 -16 -13 -105
-38 -165 -46 -30 -3 -71 -8 -90 -11 -19 -2 -55 -6 -79 -8 -24 -2 -47 -9 -51
-16 -4 -7 -12 -10 -17 -7 -5 3 -14 -3 -21 -14 -7 -10 -8 -19 -3 -19 5 0 12 6
14 13 3 7 6 5 6 -5 1 -10 -3 -18 -9 -18 -5 0 -10 -5 -10 -11 0 -5 5 -7 10 -4
6 3 10 -4 10 -17 0 -17 -3 -19 -9 -9 -5 8 -11 9 -15 3 -3 -6 3 -17 14 -25 13
-9 18 -20 14 -31 -5 -14 -9 -15 -15 -5 -5 9 -10 4 -15 -17 -8 -33 -62 -104
-79 -104 -6 0 -11 -8 -12 -17 0 -10 -5 -33 -11 -50 -6 -20 -7 -33 -1 -33 5 0
9 -7 9 -15 0 -8 -4 -15 -9 -15 -5 0 -16 -11 -25 -25 -19 -29 -12 -53 10 -34
12 10 14 1 15 -57 1 -38 1 -72 0 -77 0 -4 4 -7 10 -7 7 0 9 -10 4 -27 -10 -41
-24 -53 -56 -49 -22 3 -33 -2 -41 -17 -9 -17 -6 -24 16 -43 23 -21 25 -28 19
-69 -3 -26 -12 -49 -19 -52 -8 -3 -14 -11 -14 -19 0 -27 -59 -75 -96 -78 -19
-2 -39 -7 -44 -12 -12 -14 18 -104 36 -104 8 0 12 -4 9 -10 -3 -5 1 -10 9 -10
9 0 16 -6 16 -14 0 -8 7 -17 16 -20 9 -4 14 -9 11 -12 -7 -7 17 -34 31 -34 16
0 33 -26 37 -60 2 -17 15 -43 29 -57 14 -14 26 -36 26 -48 0 -15 8 -25 21 -28
14 -4 20 -13 19 -29 -3 -36 -1 -48 10 -48 19 0 123 -115 142 -157 10 -24 24
-43 30 -43 5 0 7 -7 4 -16 -8 -22 63 -90 103 -99 16 -3 32 -13 35 -21 3 -8 16
-14 29 -14 13 0 34 -11 47 -25 32 -34 48 -32 42 5 l-4 31 43 -29 c59 -40 79
-44 113 -27 27 14 30 14 52 -10 13 -14 26 -21 29 -15 3 6 17 10 30 10 18 0 23
-4 19 -15 -4 -10 0 -15 11 -15 11 0 15 5 11 15 -4 11 2 14 26 11 18 -2 34 -8
36 -15 2 -6 8 -8 14 -5 5 3 29 -16 54 -42 42 -47 44 -48 58 -29 8 11 18 17 22
13 4 -4 1 -14 -5 -22 -19 -22 -3 -39 30 -32 29 5 41 -8 17 -17 -10 -4 -9 -8 2
-17 12 -9 10 -11 -11 -6 -18 4 -26 1 -26 -9 0 -8 5 -15 10 -15 5 0 2 -12 -8
-26 -16 -25 -16 -28 -1 -36 26 -15 -2 -48 -41 -48 -17 0 -35 -5 -38 -11 -5 -6
-12 -4 -21 8 -12 16 -13 13 -11 -28 1 -34 5 -45 14 -42 7 3 13 1 13 -5 0 -12
-24 -22 -51 -22 -10 0 -18 6 -16 13 2 12 -33 11 -43 -1 -12 -17 -53 -46 -45
-33 6 11 1 12 -29 7 -24 -5 -36 -3 -36 4 0 7 -6 10 -12 7 -7 -2 -12 -9 -11
-14 1 -6 -9 -8 -22 -5 -14 2 -22 8 -19 13 3 5 -12 8 -33 7 -21 -1 -58 1 -83 5
-40 6 -41 6 -12 -3 17 -6 32 -13 32 -15 0 -10 -85 4 -88 15 -3 8 -9 7 -21 -4
-18 -16 -97 -34 -88 -19 3 5 1 15 -4 23 -8 12 -12 12 -16 3 -7 -20 -31 -15
-38 7 -6 19 -20 24 -59 20 -10 -1 -23 4 -27 12 -7 10 -9 9 -9 -4 0 -10 -4 -18
-10 -18 -5 0 -10 9 -10 20 0 15 -6 18 -28 15 -16 -2 -35 1 -43 6 -10 6 -11 9
-1 9 26 0 -6 35 -35 38 -15 1 -33 9 -39 17 -15 20 -35 19 -27 -1 4 -12 2 -15
-8 -12 -8 3 -13 13 -13 22 1 9 -2 16 -7 16 -5 0 -9 -6 -9 -12 0 -7 -9 -2 -19
12 -11 13 -18 27 -15 31 2 4 -7 14 -21 23 -16 11 -26 12 -31 5 -4 -8 -9 -8
-17 0 -19 19 -28 12 -22 -16 4 -22 2 -20 -8 7 -9 22 -23 37 -38 41 -16 5 -18
7 -6 8 9 1 17 8 17 17 0 9 -6 14 -13 11 -8 -3 -20 -1 -27 3 -9 6 -18 3 -26 -8
-11 -15 -14 -14 -38 8 -31 30 -33 44 -6 35 28 -9 25 4 -10 43 -16 18 -31 39
-33 45 -3 9 -9 9 -25 0 -17 -10 -23 -8 -41 11 -11 12 -21 28 -21 34 0 7 -3 11
-7 10 -11 -4 -48 24 -56 42 -4 8 -11 22 -16 30 -5 8 -12 22 -15 30 -3 8 -10
22 -15 30 -16 29 -34 85 -52 170 -20 95 -14 151 24 223 25 49 115 140 159 163
18 9 52 30 75 45 37 26 41 32 34 56 -5 16 -14 27 -21 25 -11 -3 -11 0 0 13 21
25 5 94 -45 193 -25 50 -45 93 -45 97 0 3 -9 27 -21 53 -11 26 -26 61 -34 77
-7 17 -16 45 -20 62 -7 34 -40 75 -89 108 -54 37 -84 77 -110 149 -14 39 -26
77 -26 84 0 7 -20 50 -44 95 -24 45 -47 93 -51 107 -4 14 -26 63 -48 110 -39
80 -42 92 -45 187 -4 115 -9 105 91 186 53 43 57 60 32 142 -10 31 -18 115
-22 225 -6 189 5 329 38 461 20 81 49 149 49 115 0 -12 5 -16 15 -12 18 6 19
-4 4 -38 -8 -16 -17 -23 -28 -19 -12 4 -11 2 3 -9 15 -12 16 -18 7 -36 -15
-28 -14 -32 7 -33 14 0 14 -2 -3 -8 -19 -8 -19 -8 2 -19 31 -17 32 -16 54 32
11 25 37 64 59 88 22 24 38 48 35 55 -2 6 3 17 11 23 8 7 14 19 14 27 0 8 4
12 10 8 5 -3 18 11 29 32 10 21 28 47 40 57 12 11 21 25 21 33 0 8 4 19 10 26
5 7 25 32 43 57 34 46 85 79 125 80 12 0 22 4 22 9 0 9 36 18 105 27 22 3 47
8 55 11 8 3 46 6 84 8 37 2 73 8 79 14 8 8 16 6 30 -6 18 -17 19 -16 35 4 15
19 24 21 75 16 33 -3 62 -1 70 5 16 13 57 17 80 7 10 -4 37 -2 60 4 23 6 53
12 67 14 14 3 28 5 31 6 3 0 14 -8 25 -20z m1256 -681 c-7 -7 -12 -20 -12 -30
0 -10 -4 -18 -10 -18 -5 0 -10 5 -10 10 0 6 -13 10 -29 10 -17 0 -31 6 -35 16
-5 13 -1 14 24 9 16 -3 37 -2 47 4 25 14 40 14 25 -1z m-73 -39 c31 -11 31
-12 15 -30 -9 -11 -24 -18 -33 -18 -13 1 -13 2 2 6 24 6 22 33 -3 33 -11 0
-20 5 -20 10 0 12 0 12 39 -1z m202 -2 c-1 -12 -15 -9 -19 4 -3 6 1 10 8 8 6
-3 11 -8 11 -12z m327 -242 l-3 -225 37 0 c21 0 55 -7 77 -16 31 -12 42 -24
56 -60 19 -50 15 -72 -5 -24 -12 28 -16 30 -66 30 -30 0 -54 5 -54 10 0 6 5
10 11 10 23 0 -17 26 -43 27 -51 4 -55 6 -55 30 0 13 8 40 18 59 15 31 17 58
15 210 -2 102 1 174 6 174 6 0 8 -91 6 -225z m-598 205 c0 -5 -4 -10 -9 -10
-6 0 -13 5 -16 10 -3 6 1 10 9 10 9 0 16 -4 16 -10z m305 0 c-3 -5 -18 -10
-33 -9 l-27 1 25 8 c35 11 42 11 35 0z m-180 -14 c14 -13 10 -56 -5 -56 -4 0
-10 16 -12 35 -4 39 -3 41 17 21z m60 -36 c-21 -22 -31 -27 -37 -18 -5 9 -1
14 12 16 11 2 20 10 20 18 0 8 8 14 17 14 13 0 10 -7 -12 -30z m142 14 c-3 -3
-12 -4 -19 -1 -8 3 -5 6 6 6 11 1 17 -2 13 -5z m-72 -13 c-3 -6 3 -14 12 -20
16 -9 16 -10 -3 -11 -13 0 -24 8 -27 20 -3 13 0 20 10 20 8 0 12 -4 8 -9z m85
-22 c-14 -4 -20 -7 -13 -8 7 -1 10 -8 7 -16 -5 -11 0 -14 16 -13 13 2 25 -3
27 -12 4 -13 3 -13 -6 0 -8 11 -11 11 -11 2 0 -7 6 -15 13 -18 8 -3 24 -19 36
-35 l23 -30 -24 -21 -23 -21 23 6 c17 4 22 2 18 -8 -2 -7 2 -19 10 -26 9 -7
14 -23 11 -36 -2 -13 0 -26 4 -29 5 -3 9 -25 9 -50 0 -51 -22 -83 -44 -65 -7
6 -15 8 -19 5 -3 -3 -14 -1 -24 5 -16 9 -16 10 6 11 19 0 21 3 12 14 -7 8 -11
20 -10 28 3 24 -2 53 -8 41 -7 -20 -41 -15 -53 7 -9 17 -8 20 12 21 22 0 22 1
3 9 -11 5 -14 9 -7 9 17 1 15 21 -3 21 -8 0 -15 7 -15 15 0 9 -9 15 -22 14
-13 0 -17 -3 -10 -6 15 -6 16 -33 1 -33 -6 0 -9 -7 -5 -15 3 -8 1 -15 -4 -15
-6 0 -10 8 -10 18 0 9 -5 24 -10 32 -7 11 -10 5 -10 -22 0 -32 3 -38 21 -38
11 0 18 -4 15 -8 -7 -11 -66 -3 -66 9 0 5 3 9 8 9 14 0 8 105 -8 117 -24 20
-35 15 -15 -7 10 -11 15 -23 12 -27 -4 -3 -7 -1 -7 5 0 6 -9 14 -21 17 -11 4
-18 9 -15 12 3 4 1 12 -6 20 -14 17 -2 31 14 15 8 -8 15 -9 25 -1 9 8 13 8 13
0 0 -6 4 -11 9 -11 14 0 58 46 66 68 3 12 11 22 16 22 5 0 9 8 9 19 0 15 5 17
28 13 l27 -6 -25 -7z m-167 -26 c13 4 59 -38 50 -46 -9 -10 -33 5 -33 21 0 12
-3 13 -12 4 -18 -18 -46 -15 -51 6 -4 13 -5 11 -6 -5 -1 -27 -21 -31 -21 -5 0
28 20 43 42 31 11 -6 25 -9 31 -6z m-890 -77 c6 -16 -2 -28 -14 -20 -12 7 -11
34 0 34 5 0 11 -6 14 -14z m777 5 c0 -5 -9 -7 -20 -4 -11 3 -20 7 -20 9 0 2 9
4 20 4 11 0 20 -4 20 -9z m-1077 -78 c-7 -2 -19 -2 -25 0 -7 3 -2 5 12 5 14 0
19 -2 13 -5z m1292 -123 c3 -5 1 -10 -4 -10 -6 0 -11 5 -11 10 0 6 2 10 4 10
3 0 8 -4 11 -10z m-347 -157 c-16 -2 -40 -2 -55 0 -16 2 -3 4 27 4 30 0 43 -2
28 -4z m-73 -33 c5 -8 11 -7 21 1 8 6 17 9 21 5 3 -3 1 -6 -5 -6 -7 0 -12 -13
-12 -30 0 -17 -9 -37 -21 -49 -18 -17 -23 -38 -31 -128 -6 -59 -14 -110 -18
-113 -5 -3 -8 -19 -8 -35 1 -17 -2 -40 -6 -53 -4 -12 -4 -22 1 -21 25 4 47 -4
71 -28 22 -22 34 -26 84 -26 33 1 65 7 74 14 9 7 23 14 32 15 35 6 92 38 93
53 4 54 6 68 11 81 20 45 39 117 41 151 1 21 7 41 13 43 6 2 9 15 7 28 -10 50
40 60 86 17 18 -17 25 -18 37 -8 14 11 15 2 12 -81 -3 -101 10 -129 33 -67 9
25 17 33 27 29 11 -4 14 -1 9 10 -4 11 2 18 19 22 13 4 24 11 24 16 0 6 4 10
8 10 5 0 7 -19 5 -42 -8 -109 -16 -168 -24 -168 -5 0 -9 -12 -9 -27 0 -16 -5
-46 -11 -68 -6 -22 -12 -62 -13 -89 -1 -29 -6 -51 -14 -54 -6 -2 -12 3 -12 12
0 9 -8 16 -17 16 -10 0 -25 5 -33 10 -11 7 -8 9 12 7 33 -3 38 16 6 25 l-23 6
23 1 c14 1 22 6 19 14 -2 7 -16 11 -35 9 -18 -2 -32 1 -32 6 0 5 12 7 26 4 19
-3 25 -1 20 7 -4 6 -3 11 2 11 17 0 21 28 9 54 -7 14 -15 26 -19 26 -5 0 -8 5
-8 11 0 6 7 9 15 5 17 -6 21 19 5 29 -5 3 -7 12 -3 20 3 9 -1 15 -9 15 -9 0
-21 -22 -31 -53 -13 -41 -23 -56 -49 -69 -41 -20 -214 -61 -227 -54 -5 4 -11
2 -13 -3 -1 -6 -25 -12 -53 -15 -27 -3 -99 -10 -159 -17 -173 -19 -334 9 -344
59 -3 15 3 15 28 0 16 -11 23 -9 40 10 21 23 37 25 80 13 27 -7 56 4 84 32 19
18 41 24 31 7 -3 -6 1 -7 9 -4 9 3 16 15 16 25 0 10 4 19 9 19 5 0 12 23 16
51 6 39 4 54 -9 68 -17 19 -13 73 8 100 8 11 8 15 -1 18 -10 4 -10 10 -1 26 6
12 10 41 9 65 -2 39 0 42 23 42 14 0 28 -5 31 -10z m467 -11 c18 -10 34 -47
24 -56 -3 -4 -6 1 -6 10 0 11 -17 19 -57 28 -68 15 -72 17 -53 30 15 9 62 3
92 -12z m-1274 -1 c9 -9 15 -9 24 0 9 9 14 7 24 -6 11 -14 15 -15 23 -3 14 22
33 4 19 -19 -9 -14 -9 -22 1 -33 9 -12 9 -16 -1 -20 -7 -3 1 -6 17 -7 30 -2
30 -2 5 -10 -30 -10 -106 -13 -97 -4 6 6 -4 22 -39 57 -17 18 -19 26 -10 40
13 20 18 21 34 5z m1749 -20 c-3 -7 -5 -2 -5 12 0 14 2 19 5 13 2 -7 2 -19 0
-25z m-279 -14 c-6 -16 -13 -30 -14 -32 -5 -9 -64 -19 -64 -11 0 5 10 11 23
14 13 4 31 20 41 36 22 37 31 32 14 -7z m-2040 -76 c3 -25 0 -28 -24 -28 -29
0 -55 26 -47 48 4 8 17 12 37 10 25 -2 32 -8 34 -30z m1934 20 c-5 -7 -12 -22
-15 -33 -4 -16 -5 -14 -6 7 -1 22 7 33 28 37 2 1 -1 -5 -7 -11z m-1122 -8 c0
-5 -4 -10 -10 -10 -5 0 -10 5 -10 10 0 6 5 10 10 10 6 0 10 -4 10 -10z m-55
-69 c3 -10 1 -36 -4 -57 -5 -22 -14 -57 -20 -79 -11 -44 -5 -85 13 -85 8 0 8
-2 0 -8 -15 -10 -37 -52 -30 -59 3 -3 -1 -21 -9 -40 -8 -19 -12 -39 -9 -44 3
-5 1 -9 -3 -9 -5 0 -14 -10 -22 -22 -10 -18 -11 -20 0 -10 7 6 21 12 30 12 10
0 20 6 22 13 4 8 6 6 6 -4 1 -16 -37 -39 -64 -39 -18 0 -18 -5 -6 -47 7 -23 6
-35 -3 -42 -14 -12 -9 -74 5 -65 5 3 7 10 4 15 -4 5 0 9 8 9 8 0 13 -9 11 -22
-1 -13 -3 -27 -3 -32 -1 -4 -7 -6 -13 -4 -7 3 -24 -5 -38 -18 -20 -20 -21 -24
-8 -24 11 0 15 -5 12 -15 -4 -8 -1 -15 5 -15 6 0 11 -9 11 -20 0 -13 -7 -20
-20 -20 -11 0 -20 4 -20 9 0 8 -69 81 -103 109 -8 7 -46 16 -84 19 -76 5 -110
22 -119 58 -8 33 19 76 78 121 27 20 47 39 44 41 -8 8 28 69 60 100 16 17 55
83 88 149 32 65 65 125 74 132 9 6 35 12 58 12 33 0 44 -4 49 -19z m-728 -58
c-3 -10 -5 -4 -5 12 0 17 2 24 5 18 2 -7 2 -21 0 -30z m321 -25 c2 -8 -6 -26
-17 -39 l-21 -24 4 25 c3 14 5 33 5 43 1 22 25 18 29 -5z m-61 -64 c-3 -3 -12
-4 -19 -1 -8 3 -5 6 6 6 11 1 17 -2 13 -5z m997 -9 c-4 -8 -8 -15 -10 -15 -2
0 -4 7 -4 15 0 8 4 15 10 15 5 0 7 -7 4 -15z m-1134 -29 c0 -2 -7 -7 -16 -10
-8 -3 -12 -2 -9 4 6 10 25 14 25 6z m1400 -21 c0 -8 -7 -15 -15 -15 -16 0 -20
12 -8 23 11 12 23 8 23 -8z m320 -59 c0 -3 -4 -8 -10 -11 -5 -3 -10 -1 -10 4
0 6 5 11 10 11 6 0 10 -2 10 -4z m291 -218 c-5 -13 -13 -22 -19 -21 -5 1 -9
-3 -9 -10 2 -41 -20 -101 -50 -137 -19 -22 -39 -40 -45 -40 -6 0 2 11 18 25
16 14 25 25 21 25 -4 0 1 9 12 21 14 15 18 30 14 58 -4 28 -1 42 12 52 9 8 24
22 33 32 21 22 23 22 13 -5z m-1799 -153 c5 -6 8 -6 8 0 0 6 7 2 15 -9 16 -21
45 -15 45 9 0 13 3 13 20 3 23 -15 27 -40 5 -32 -8 4 -15 1 -15 -5 0 -17 -96
-14 -114 4 -8 8 -19 15 -24 15 -14 0 -35 28 -28 39 7 11 77 -8 88 -24z m1655
-61 c-3 -3 -12 -4 -19 -1 -8 3 -5 6 6 6 11 1 17 -2 13 -5z m-1677 -244 c0 -5
-4 -10 -10 -10 -5 0 -10 5 -10 10 0 6 5 10 10 10 6 0 10 -4 10 -10z m-41 -149
c1 15 5 15 49 1 76 -25 102 -36 102 -44 0 -5 11 -8 25 -8 14 0 25 -4 25 -10 0
-5 -9 -10 -19 -10 -11 0 -23 -9 -26 -20 -7 -23 -32 -50 -46 -50 -5 0 -9 10 -9
23 0 15 -3 18 -8 9 -5 -7 -16 -10 -25 -6 -9 3 -17 1 -17 -4 0 -6 9 -14 21 -17
25 -8 21 -37 -6 -41 -11 -2 -28 4 -37 13 -17 15 -17 17 -2 35 16 17 16 18 -14
18 -18 0 -32 5 -32 10 0 6 5 10 11 10 5 0 8 4 4 9 -3 5 -1 13 5 16 8 5 6 15
-4 31 -9 13 -16 31 -15 41 0 16 1 16 9 -2 7 -15 9 -16 9 -4z m-538 -294 c-10
-9 -11 -8 -5 6 3 10 9 15 12 12 3 -3 0 -11 -7 -18z m6 -37 c21 0 23 -2 13 -15
-15 -19 -50 -2 -49 23 0 10 3 12 6 5 2 -7 16 -13 30 -13z m1528 -780 c3 -5 -1
-10 -10 -10 -9 0 -13 5 -10 10 3 6 8 10 10 10 2 0 7 -4 10 -10z m-85 -50 c0
-5 -4 -10 -10 -10 -5 0 -10 5 -10 10 0 6 5 10 10 10 6 0 10 -4 10 -10z m-118
-32 c-7 -7 -12 -8 -12 -2 0 14 12 26 19 19 2 -3 -1 -11 -7 -17z m50 7 c0 -5
-5 -11 -11 -13 -6 -2 -11 4 -11 13 0 9 5 15 11 13 6 -2 11 -8 11 -13z m-117
-66 c-4 -5 -13 -9 -22 -9 -13 0 -13 3 -3 15 13 15 35 11 25 -6z m-95 -44 c0
-8 -4 -15 -8 -15 -5 0 -9 7 -9 15 0 8 4 15 9 15 4 0 8 -7 8 -15z m85 -86 c-4
-5 -13 -9 -21 -9 -8 0 -14 -7 -14 -15 0 -8 -6 -15 -13 -15 -21 0 -28 12 -16
27 6 7 8 14 3 14 -5 1 5 5 21 8 33 8 48 4 40 -10z m-1285 -29 c0 -5 -2 -10 -4
-10 -3 0 -8 5 -11 10 -3 6 -1 10 4 10 6 0 11 -4 11 -10z m740 -214 c0 -3 -4
-8 -10 -11 -5 -3 -10 -1 -10 4 0 6 5 11 10 11 6 0 10 -2 10 -4z"/>
<path d="M3676 4241 c-3 -5 1 -11 9 -14 9 -4 12 -1 8 9 -6 16 -10 17 -17 5z"/>
<path d="M3990 4219 c0 -5 5 -7 10 -4 6 3 10 8 10 11 0 2 -4 4 -10 4 -5 0 -10
-5 -10 -11z"/>
<path d="M3666 4191 c-4 -5 -2 -12 3 -15 5 -4 12 -2 15 3 4 5 2 12 -3 15 -5 4
-12 2 -15 -3z"/>
<path d="M3770 4179 c0 -18 -2 -19 -15 -9 -12 10 -15 10 -15 -2 0 -8 6 -15 13
-15 6 0 19 -4 28 -7 13 -6 15 -1 11 24 -5 34 -22 41 -22 9z"/>
<path d="M3600 4150 c0 -16 4 -30 9 -30 4 0 8 13 7 30 -1 39 -16 39 -16 0z"/>
<path d="M3525 4160 c-3 -5 1 -10 9 -10 9 0 16 5 16 10 0 6 -4 10 -9 10 -6 0
-13 -4 -16 -10z"/>
<path d="M3693 4135 c-31 -29 -32 -31 -13 -43 31 -19 43 -15 36 12 -3 14 -1
26 5 28 6 2 10 11 8 19 -3 11 -12 7 -36 -16z"/>
<path d="M3754 4118 c3 -17 36 -23 36 -8 0 7 -6 10 -14 7 -8 -3 -17 -2 -20 4
-2 5 -3 4 -2 -3z"/>
<path d="M3570 4090 c0 -5 5 -10 10 -10 6 0 10 5 10 10 0 6 -4 10 -10 10 -5 0
-10 -4 -10 -10z"/>
<path d="M3600 4090 c0 -5 9 -10 20 -10 11 0 23 -7 26 -15 4 -8 10 -15 14 -15
10 0 8 20 -3 38 -10 14 -57 16 -57 2z"/>
<path d="M3506 4067 c3 -10 9 -15 12 -12 3 3 0 11 -7 18 -10 9 -11 8 -5 -6z"/>
<path d="M3600 4041 c0 -6 9 -9 19 -8 11 0 17 5 15 9 -7 11 -34 10 -34 -1z"/>
<path d="M3600 4004 c0 -8 5 -12 10 -9 6 4 8 11 5 16 -9 14 -15 11 -15 -7z"/>
<path d="M3635 4010 c-3 -5 -1 -10 4 -10 6 0 11 5 11 10 0 6 -2 10 -4 10 -3 0
-8 -4 -11 -10z"/>
<path d="M3673 3976 c-6 -8 -10 -16 -7 -19 7 -6 54 16 54 26 0 12 -34 7 -47
-7z"/>
<path d="M3690 3940 c0 -5 7 -10 15 -10 8 0 15 5 15 10 0 6 -7 10 -15 10 -8 0
-15 -4 -15 -10z"/>
<path d="M3677 3914 c3 -7 9 -14 14 -14 14 0 10 17 -5 23 -10 4 -13 1 -9 -9z"/>
<path d="M3620 3880 c-12 -8 -11 -10 8 -10 12 0 22 5 22 10 0 13 -11 13 -30 0z"/>
<path d="M3720 3870 c0 -5 5 -10 10 -10 6 0 10 5 10 10 0 6 -4 10 -10 10 -5 0
-10 -4 -10 -10z"/>
<path d="M3690 3772 c0 -14 6 -22 16 -22 14 0 15 3 3 18 -7 9 -15 19 -16 21
-2 2 -3 -5 -3 -17z"/>
<path d="M3735 3760 c-3 -5 -1 -10 4 -10 6 0 11 5 11 10 0 6 -2 10 -4 10 -3 0
-8 -4 -11 -10z"/>
<path d="M2673 3743 c9 -2 23 -2 30 0 6 3 -1 5 -18 5 -16 0 -22 -2 -12 -5z"/>
<path d="M1430 3340 c-10 -19 -6 -24 14 -21 5 1 16 -4 25 -12 34 -29 41 -29
41 1 0 21 -7 32 -25 40 -35 16 -43 15 -55 -8z"/>
<path d="M1410 3290 c0 -5 5 -10 10 -10 6 0 10 5 10 10 0 6 -4 10 -10 10 -5 0
-10 -4 -10 -10z"/>
<path d="M1540 3228 c1 -28 119 -138 148 -138 18 0 14 50 -3 56 -8 4 -15 10
-15 16 0 5 6 6 13 2 6 -4 5 1 -5 11 -9 10 -28 19 -42 20 -14 2 -42 13 -61 25
-25 15 -35 18 -35 8z"/>
<path d="M1300 3197 c0 -9 -4 -17 -10 -19 -5 -1 -13 -31 -16 -65 -6 -52 -2
-73 21 -140 16 -43 32 -82 36 -88 3 -5 10 -25 14 -44 9 -44 71 -148 95 -161
50 -27 52 -3 5 53 -42 49 -62 111 -70 215 -6 80 -31 216 -44 241 -10 21 -31
26 -31 8z"/>
<path d="M1493 2893 c-3 -10 -13 -26 -21 -35 -22 -26 -8 -86 24 -100 13 -6 26
-9 28 -7 2 2 1 39 -1 82 -5 74 -17 97 -30 60z"/>
<path d="M2375 2870 c4 -6 -7 -10 -25 -10 -19 0 -29 -4 -25 -10 4 -6 14 -10
23 -8 10 1 22 -1 29 -5 13 -8 37 26 26 37 -10 10 -35 7 -28 -4z"/>
<path d="M1994 1892 c4 -7 2 -21 -4 -32 -7 -13 -7 -20 0 -20 5 0 10 7 10 16 0
8 5 12 11 8 7 -4 10 1 7 11 -1 10 -9 20 -17 23 -8 3 -11 0 -7 -6z"/>
<path d="M1825 1860 c-3 -5 1 -10 9 -10 9 0 16 5 16 10 0 6 -4 10 -9 10 -6 0
-13 -4 -16 -10z"/>
<path d="M2175 1290 c-3 -5 -1 -10 4 -10 6 0 11 5 11 10 0 6 -2 10 -4 10 -3 0
-8 -4 -11 -10z"/>
<path d="M2168 1248 c-19 -19 -24 -38 -9 -38 14 0 33 28 29 42 -2 10 -7 9 -20
-4z"/>
<path d="M2295 1121 c5 -8 -1 -10 -18 -5 -22 5 -25 3 -20 -15 6 -23 18 -27 29
-10 3 6 15 9 25 6 26 -7 24 10 -2 24 -16 8 -20 8 -14 0z"/>
<path d="M2300 1065 c0 -8 5 -15 10 -15 6 0 10 7 10 15 0 8 -4 15 -10 15 -5 0
-10 -7 -10 -15z"/>
<path d="M3040 629 c0 -5 5 -7 10 -4 6 3 10 8 10 11 0 2 -4 4 -10 4 -5 0 -10
-5 -10 -11z"/>
<path d="M4448 3453 c7 -3 16 -2 19 1 4 3 -2 6 -13 5 -11 0 -14 -3 -6 -6z"/>
<path d="M4080 3780 c0 -5 5 -10 10 -10 6 0 10 5 10 10 0 6 -4 10 -10 10 -5 0
-10 -4 -10 -10z"/>
<path d="M4110 3735 c0 -8 6 -15 14 -15 8 0 16 7 20 15 4 10 -1 15 -14 15 -11
0 -20 -7 -20 -15z"/>
<path d="M4054 3729 c-4 -7 4 -20 17 -30 32 -24 38 -24 31 4 -8 33 -34 48 -48
26z"/>
<path d="M4175 3710 c-3 -5 -1 -10 4 -10 6 0 11 5 11 10 0 6 -2 10 -4 10 -3 0
-8 -4 -11 -10z"/>
<path d="M4156 3664 c-4 -14 -5 -28 -3 -31 3 -2 8 8 11 23 4 14 5 28 3 31 -3
2 -8 -8 -11 -23z"/>
<path d="M4210 3110 c-9 -6 -10 -10 -3 -10 6 0 15 5 18 10 8 12 4 12 -15 0z"/>
<path d="M4198 2948 c5 -5 16 -8 23 -6 8 3 3 7 -10 11 -17 4 -21 3 -13 -5z"/>
<path d="M3575 2900 c-3 -5 -1 -10 4 -10 6 0 11 5 11 10 0 6 -2 10 -4 10 -3 0
-8 -4 -11 -10z"/>
<path d="M2873 3256 c0 -8 8 -11 20 -8 14 4 16 7 5 13 -19 12 -25 11 -25 -5z"/>
<path d="M2665 2720 c-3 -5 -1 -10 4 -10 6 0 11 5 11 10 0 6 -2 10 -4 10 -3 0
-8 -4 -11 -10z"/>
</g>
</svg>
